<svg viewBox="0 0 175 175" xmlns="http://www.w3.org/2000/svg"><circle cx="87.5" cy="87.5" fill="#f8f8f8" r="87.5"/><path d="m128.19 37.89h-82.25a9.5 9.5 0 0 0 -9.62 9.63v111a87.59 87.59 0 0 0 7.44 4.82v-106.2h87.5v106.15q3.34-1.93 6.48-4.14l.08-.07v-111.08a9.87 9.87 0 0 0 -9.63-10.11zm-32.81 11.38h-15.75a1.31 1.31 0 0 1 0-2.62h15.75a1.31 1.31 0 0 1 0 2.63z"/><circle cx="87.06" cy="116.2" fill="#509bf5" r="28"/><g fill="#fff"><path d="m91.37 117.52-15.47 8.93a1 1 0 0 1 -1.5-.87v-17.87a1 1 0 0 1 1.5-.87l15.47 8.93a1 1 0 0 1 0 1.74"/><path d="m98 106.36a1.67 1.67 0 0 0 -1.75 1.57v16.86a1.76 1.76 0 0 0 3.5 0v-16.86a1.67 1.67 0 0 0 -1.75-1.57z"/></g></svg>