<svg viewBox="0 0 175 175" xmlns="http://www.w3.org/2000/svg"><circle cx="87.5" cy="87.5" fill="#f8f8f8" r="87.5"/><path d="m140.44 53.16-92.61 80.32 4.64-31.58-39.87 30.85a87.53 87.53 0 0 0 125.48 26.15l9.69-39.28-28.68 17.09z" fill="#509bf5" fill-rule="evenodd"/><path d="m113.1 68.87.37-9.9-36.08 5.88-.39 9.85-1 27.7a8.22 8.22 0 1 0 2.48 6.2c0-.25 0-.49 0-.73l1.22-32.41 30.71-5-1 26a8.22 8.22 0 1 0 2.44 6.2l1.27-33.79z" fill-rule="evenodd"/><circle cx="53.27" cy="71.85" fill="#509bf5" r="15.89"/><path d="m59.82 72.37a1.77 1.77 0 0 0 -2.5 0l-2.32 2.28v-9.42a1.77 1.77 0 1 0 -3.53 0v9.42l-2.28-2.28a1.77 1.77 0 1 0 -2.5 2.5l6.54 6.54 6.54-6.54a1.77 1.77 0 0 0 .05-2.5z" fill="#fff"/></svg>