<svg viewBox="0 0 175 175" xmlns="http://www.w3.org/2000/svg"><circle cx="87.5" cy="87.5" fill="#f8f8f8" r="87.5"/><path d="m128.19 37.89h-82.25a9.5 9.5 0 0 0 -9.62 9.63v111a87.59 87.59 0 0 0 7.44 4.82v-106.2h87.5v106.15q3.34-1.93 6.48-4.14l.08-.07v-111.08a9.87 9.87 0 0 0 -9.63-10.11zm-32.81 11.38h-15.75a1.31 1.31 0 0 1 0-2.62h15.75a1.31 1.31 0 0 1 0 2.63z"/><path d="m115.06 144.41h-55.12c-3.87 0-6.56-3.13-6.56-7v-42c0-3.87 2.7-7 6.56-7h55.13c3.87 0 6.56 3.13 6.56 7v42c0 3.87-2.7 7-6.56 7" fill="#509bf5"/><path d="m90.23 122.54 1.75-22.75h-8.31l1.75 22.75z" fill="#fff"/><circle cx="87.82" cy="129.76" fill="#fff" r="3.72"/><path d="m150.31 62.85a15.75 15.75 0 1 1 -15.75-15.75 15.75 15.75 0 0 1 15.75 15.75" fill="#509bf5" fill-rule="evenodd"/><path d="m136.85 62.85 4-4a1.62 1.62 0 1 0 -2.28-2.29l-4 4-4-4a1.62 1.62 0 1 0 -2.28 2.29l4 4-4 4a1.62 1.62 0 1 0 2.28 2.29l4-4 4 4a1.62 1.62 0 1 0 2.28-2.29z" fill="#fff"/></svg>