<svg viewBox="0 0 175 175" xmlns="http://www.w3.org/2000/svg"><circle cx="87.5" cy="87.5" fill="#f7f8f9" r="87.5"/><path d="m89.89 26.15a40.65 40.65 0 0 0 -36.47 58.59c-.3 0-.59 0-.89 0a18.3 18.3 0 1 0 18.31 18.26c0-.1 0-.21 0-.31a40.65 40.65 0 1 0 19.05-76.54z" fill="#509bf5"/><circle cx="127.89" cy="92.59" r="15.4"/><circle cx="37.36" cy="76.19" r="5.86"/><path d="m134.56 93.12-9.28 5.36a.73.73 0 0 1 -1.09-.63v-10.72a.73.73 0 0 1 1.09-.63l9.28 5.36a.73.73 0 0 1 0 1.26" fill="#fff"/><circle cx="87.43" cy="121.88" r="25.06"/><g fill-rule="evenodd"><path d="m93.64 127-10.3-19.77-1.58.84 9 17.32a5.66 5.66 0 1 0 2.88 1.61z" fill="#509bf5"/><path d="m105.32 46-26.47 4.35-.27 7.23-.76 20.32a6 6 0 1 0 1.82 4.32c0-.08 0-.16 0-.24l.9-23.85 22.53-3.67-.72 19.11a6 6 0 1 0 1.79 4.55l.93-24.82z" fill="#fff"/></g></svg>